<?xml version="1.0" standalone="no"?>
<!DOCTYPE svg PUBLIC "-//W3C//DTD SVG 20010904//EN"
 "http://www.w3.org/TR/2001/REC-SVG-20010904/DTD/svg10.dtd">
<svg version="1.0" xmlns="http://www.w3.org/2000/svg"
 width="512.000000pt" height="512.000000pt" viewBox="0 0 512.000000 512.000000"
 preserveAspectRatio="xMidYMid meet">
<metadata>
Created by potrace 1.11, written by Peter Selinger 2001-2013
</metadata>
<g transform="translate(0.000000,512.000000) scale(0.100000,-0.100000)"
fill="#000000" stroke="none">
<path d="M968 5115 c-2 -2 -48 -6 -103 -9 -120 -8 -198 -14 -245 -20 -19 -3
-64 -8 -100 -11 -122 -13 -156 -47 -154 -156 2 -70 23 -111 89 -175 65 -62
103 -146 130 -282 1 -9 8 -35 13 -57 6 -22 13 -51 15 -65 17 -95 71 -249 113
-320 35 -60 94 -126 130 -147 42 -23 241 -65 322 -67 17 -1 32 -3 32 -6 0 -19
368 -15 466 4 22 4 84 15 119 21 69 10 98 20 170 55 72 35 149 96 195 156 37
47 73 122 124 255 30 79 61 161 70 182 9 20 14 37 11 37 -3 0 1 13 10 30 8 16
15 32 15 35 0 3 6 18 15 35 19 36 72 53 167 53 84 -1 136 -24 160 -73 9 -19
35 -93 58 -165 158 -493 377 -650 890 -640 85 2 169 6 185 8 54 9 129 19 164
23 19 2 60 9 90 15 31 7 59 12 63 11 4 -1 20 3 35 10 15 6 30 12 33 13 42 10
142 104 155 145 3 11 11 20 16 20 5 0 9 6 9 14 0 7 9 34 21 60 16 37 61 208
94 361 3 11 7 29 9 40 23 104 86 215 147 257 96 68 113 243 27 285 -24 12
-151 36 -253 47 -220 26 -720 26 -1010 1 -79 -7 -258 -26 -285 -31 -14 -2 -41
-7 -60 -9 -19 -3 -51 -8 -70 -12 -19 -3 -44 -7 -55 -9 -11 -1 -76 -15 -145
-30 -134 -29 -323 -41 -410 -24 -25 4 -67 11 -95 14 -27 4 -57 9 -65 11 -8 3
-31 7 -50 9 -19 3 -60 9 -90 15 -30 6 -71 13 -90 16 -19 3 -46 7 -60 10 -75
14 -294 41 -405 51 -70 6 -612 13 -617 9z"/>
<path d="M282 3624 c-33 -39 -68 -146 -79 -239 -12 -104 -5 -407 12 -505 3
-14 7 -45 10 -70 3 -25 8 -54 10 -66 3 -12 7 -39 11 -60 4 -33 27 -147 39
-204 2 -8 11 -48 19 -89 9 -40 18 -76 21 -80 2 -4 6 -18 8 -32 8 -43 67 -255
87 -315 37 -108 188 -369 274 -475 12 -14 30 -38 41 -53 11 -16 25 -33 30 -40
6 -6 26 -31 45 -56 19 -25 37 -47 40 -50 3 -3 32 -36 65 -75 104 -122 126
-145 321 -340 270 -270 487 -458 664 -575 12 -8 40 -27 61 -42 21 -16 41 -28
43 -28 2 0 34 -18 71 -41 60 -36 116 -64 225 -112 40 -18 171 -55 222 -63 71
-12 242 -10 311 2 116 21 123 23 199 50 269 96 483 261 755 580 22 26 47 58
153 194 44 58 89 114 98 125 57 70 262 349 326 445 42 63 80 120 85 125 7 10
73 121 118 200 35 61 145 288 158 325 5 14 18 48 30 75 24 55 87 268 101 340
2 11 6 31 9 45 17 80 26 136 40 242 18 137 25 499 12 650 -15 185 -87 274
-154 191 -18 -22 -44 -98 -48 -138 0 -5 -4 -28 -8 -50 -4 -22 -9 -56 -11 -75
-16 -163 -59 -378 -95 -483 -47 -134 -102 -200 -231 -277 -41 -24 -77 -47 -80
-50 -16 -18 -60 -36 -91 -39 -68 -5 -167 52 -484 277 -93 66 -174 125 -180
129 -5 5 -62 45 -125 90 -246 173 -341 218 -465 217 -57 0 -98 -7 -145 -23
-80 -28 -153 -36 -205 -22 -22 6 -43 11 -47 11 -4 1 -22 6 -40 11 -63 19 -73
21 -123 24 -95 4 -159 -25 -360 -165 -66 -46 -136 -84 -205 -111 -189 -76
-220 -96 -302 -199 -110 -137 -233 -236 -355 -286 -78 -31 -195 -29 -266 6
-55 26 -168 132 -215 202 -39 57 -117 211 -137 268 -1 3 -5 12 -8 20 -11 27
-38 105 -42 124 -2 10 -9 33 -15 51 -6 18 -13 43 -16 56 -3 13 -7 33 -9 44
-24 106 -31 154 -40 265 -14 165 -68 223 -133 144z m2630 -778 c25 -3 57 -10
70 -15 13 -5 25 -9 28 -9 3 0 22 -7 44 -16 21 -9 42 -16 47 -16 5 0 9 -4 9 -9
0 -5 10 -13 22 -17 23 -7 126 -106 166 -159 84 -111 174 -279 196 -365 31
-124 -5 -240 -93 -304 -40 -29 -80 -49 -103 -51 -3 0 -9 -3 -13 -7 -4 -4 -12
-5 -18 -3 -7 2 -25 6 -40 10 -27 5 -28 8 -22 43 6 37 5 39 -43 70 -28 18 -53
32 -58 32 -4 0 -15 6 -23 14 -25 23 -251 133 -301 147 -94 26 -123 31 -196 30
-93 0 -186 -39 -343 -143 -14 -10 -35 -22 -46 -27 -38 -17 -59 -50 -61 -99 -3
-62 -2 -58 -20 -76 -51 -51 -308 35 -351 117 -23 46 -24 140 -2 227 39 154
163 356 276 450 71 59 194 125 253 135 3 0 28 6 55 13 63 14 114 20 240 28 55
3 101 7 102 8 4 3 180 -3 225 -8z"/>
</g>
</svg>
